<mxfile host="app.diagrams.net" modified="2023-10-03T04:07:53.017Z" agent="Mozilla/5.0 (Macintosh; Intel Mac OS X 10_15_7) AppleWebKit/537.36 (KHTML, like Gecko) Chrome/117.0.0.0 Safari/537.36" etag="vkWYs4WC-Ux31zndAqT5" version="22.0.1" type="google" pages="2">
  <diagram name="Top-Level" id="4tTDVmLaTxnECgl-aRyl">
    <mxGraphModel grid="1" page="1" gridSize="10" guides="1" tooltips="1" connect="1" arrows="1" fold="1" pageScale="1" pageWidth="850" pageHeight="1100" math="0" shadow="0">
      <root>
        <mxCell id="0" />
        <mxCell id="1" parent="0" />
        <mxCell id="VyRBbaZ5WQAI0WfNWj9v-1" value="" style="whiteSpace=wrap;html=1;aspect=fixed;" vertex="1" parent="1">
          <mxGeometry x="370" y="260" width="130" height="130" as="geometry" />
        </mxCell>
        <mxCell id="VyRBbaZ5WQAI0WfNWj9v-3" value="" style="endArrow=none;html=1;rounded=0;exitX=0;exitY=0.25;exitDx=0;exitDy=0;" edge="1" parent="1">
          <mxGeometry width="50" height="50" relative="1" as="geometry">
            <mxPoint x="370" y="324.79" as="sourcePoint" />
            <mxPoint x="350" y="324.79" as="targetPoint" />
          </mxGeometry>
        </mxCell>
        <mxCell id="VyRBbaZ5WQAI0WfNWj9v-4" value="" style="endArrow=none;html=1;rounded=0;exitX=0;exitY=0.25;exitDx=0;exitDy=0;" edge="1" parent="1">
          <mxGeometry width="50" height="50" relative="1" as="geometry">
            <mxPoint x="370" y="360" as="sourcePoint" />
            <mxPoint x="350" y="360" as="targetPoint" />
          </mxGeometry>
        </mxCell>
        <mxCell id="VyRBbaZ5WQAI0WfNWj9v-5" value="" style="endArrow=none;html=1;rounded=0;exitX=0;exitY=0.25;exitDx=0;exitDy=0;" edge="1" parent="1">
          <mxGeometry width="50" height="50" relative="1" as="geometry">
            <mxPoint x="370" y="290" as="sourcePoint" />
            <mxPoint x="350" y="290" as="targetPoint" />
          </mxGeometry>
        </mxCell>
        <mxCell id="VyRBbaZ5WQAI0WfNWj9v-7" value="SDA" style="text;html=1;strokeColor=none;fillColor=none;align=center;verticalAlign=middle;whiteSpace=wrap;rounded=0;" vertex="1" parent="1">
          <mxGeometry x="300" y="310" width="60" height="30" as="geometry" />
        </mxCell>
        <mxCell id="VyRBbaZ5WQAI0WfNWj9v-8" value="SCL" style="text;html=1;strokeColor=none;fillColor=none;align=center;verticalAlign=middle;whiteSpace=wrap;rounded=0;" vertex="1" parent="1">
          <mxGeometry x="305" y="350" width="50" height="20" as="geometry" />
        </mxCell>
        <mxCell id="VyRBbaZ5WQAI0WfNWj9v-10" value="" style="endArrow=none;html=1;rounded=0;" edge="1" parent="1">
          <mxGeometry width="50" height="50" relative="1" as="geometry">
            <mxPoint x="400" y="230" as="sourcePoint" />
            <mxPoint x="400" y="260" as="targetPoint" />
          </mxGeometry>
        </mxCell>
        <mxCell id="VyRBbaZ5WQAI0WfNWj9v-11" value="" style="endArrow=none;html=1;rounded=0;" edge="1" parent="1">
          <mxGeometry width="50" height="50" relative="1" as="geometry">
            <mxPoint x="440" y="230" as="sourcePoint" />
            <mxPoint x="440" y="260" as="targetPoint" />
          </mxGeometry>
        </mxCell>
        <mxCell id="VyRBbaZ5WQAI0WfNWj9v-12" value="INTA" style="text;html=1;strokeColor=none;fillColor=none;align=center;verticalAlign=middle;whiteSpace=wrap;rounded=0;" vertex="1" parent="1">
          <mxGeometry x="425" y="210" width="35" height="20" as="geometry" />
        </mxCell>
        <mxCell id="VyRBbaZ5WQAI0WfNWj9v-13" value="RESET" style="text;html=1;strokeColor=none;fillColor=none;align=center;verticalAlign=middle;whiteSpace=wrap;rounded=0;" vertex="1" parent="1">
          <mxGeometry x="380" y="210" width="40" height="20" as="geometry" />
        </mxCell>
        <mxCell id="VyRBbaZ5WQAI0WfNWj9v-14" value="Vcc" style="text;html=1;strokeColor=none;fillColor=none;align=center;verticalAlign=middle;whiteSpace=wrap;rounded=0;" vertex="1" parent="1">
          <mxGeometry x="310" y="280" width="40" height="20" as="geometry" />
        </mxCell>
        <mxCell id="VyRBbaZ5WQAI0WfNWj9v-16" value="" style="endArrow=none;html=1;rounded=0;" edge="1" parent="1" target="VyRBbaZ5WQAI0WfNWj9v-17">
          <mxGeometry width="50" height="50" relative="1" as="geometry">
            <mxPoint x="399.79" y="390" as="sourcePoint" />
            <mxPoint x="399.79" y="420" as="targetPoint" />
          </mxGeometry>
        </mxCell>
        <mxCell id="VyRBbaZ5WQAI0WfNWj9v-17" value="Vss" style="text;html=1;strokeColor=none;fillColor=none;align=center;verticalAlign=middle;whiteSpace=wrap;rounded=0;" vertex="1" parent="1">
          <mxGeometry x="369.79" y="405" width="60.21" height="15" as="geometry" />
        </mxCell>
        <mxCell id="VyRBbaZ5WQAI0WfNWj9v-18" value="" style="shape=doubleArrow;whiteSpace=wrap;html=1;" vertex="1" parent="1">
          <mxGeometry x="470" y="290" width="80" height="50" as="geometry" />
        </mxCell>
        <mxCell id="VyRBbaZ5WQAI0WfNWj9v-19" value="Ports A &amp;amp; B" style="text;html=1;strokeColor=none;fillColor=none;align=center;verticalAlign=middle;whiteSpace=wrap;rounded=0;" vertex="1" parent="1">
          <mxGeometry x="470" y="300" width="80" height="30" as="geometry" />
        </mxCell>
        <mxCell id="VyRBbaZ5WQAI0WfNWj9v-21" value="" style="endArrow=none;html=1;rounded=0;" edge="1" parent="1">
          <mxGeometry width="50" height="50" relative="1" as="geometry">
            <mxPoint x="480" y="230" as="sourcePoint" />
            <mxPoint x="480" y="260" as="targetPoint" />
          </mxGeometry>
        </mxCell>
        <mxCell id="VyRBbaZ5WQAI0WfNWj9v-22" value="INTB" style="text;html=1;strokeColor=none;fillColor=none;align=center;verticalAlign=middle;whiteSpace=wrap;rounded=0;" vertex="1" parent="1">
          <mxGeometry x="450" y="205" width="60" height="30" as="geometry" />
        </mxCell>
      </root>
    </mxGraphModel>
  </diagram>
  <diagram id="eGjwvLN4Zuyfxnw-a1u4" name="Second-Level">
    <mxGraphModel grid="1" page="1" gridSize="10" guides="1" tooltips="1" connect="1" arrows="1" fold="1" pageScale="1" pageWidth="850" pageHeight="1100" math="0" shadow="0">
      <root>
        <mxCell id="0" />
        <mxCell id="1" parent="0" />
        <mxCell id="ElQxiUhi3wbRq82YkhIr-18" value="" style="rounded=0;whiteSpace=wrap;html=1;direction=south;strokeColor=#9673a6;labelBackgroundColor=#e9eafd;fillColor=#e1d5e7;" vertex="1" parent="1">
          <mxGeometry x="300" y="416.5" width="500" height="363.5" as="geometry" />
        </mxCell>
        <mxCell id="ElQxiUhi3wbRq82YkhIr-10" value="RESET" style="text;html=1;strokeColor=#343764;fillColor=none;align=center;verticalAlign=middle;whiteSpace=wrap;rounded=0;" vertex="1" parent="1">
          <mxGeometry x="215" y="750" width="55" height="30" as="geometry" />
        </mxCell>
        <mxCell id="ElQxiUhi3wbRq82YkhIr-11" value="Vcc" style="text;html=1;strokeColor=#343764;fillColor=none;align=center;verticalAlign=middle;whiteSpace=wrap;rounded=0;" vertex="1" parent="1">
          <mxGeometry x="215" y="602.5" width="55" height="25" as="geometry" />
        </mxCell>
        <mxCell id="ElQxiUhi3wbRq82YkhIr-19" value="Interrupt Control" style="rounded=0;whiteSpace=wrap;html=1;strokeColor=#343764;labelBackgroundColor=default;" vertex="1" parent="1">
          <mxGeometry x="480" y="430" width="80" height="52.5" as="geometry" />
        </mxCell>
        <mxCell id="ElQxiUhi3wbRq82YkhIr-142" value="" style="edgeStyle=orthogonalEdgeStyle;rounded=0;orthogonalLoop=1;jettySize=auto;html=1;" edge="1" parent="1" source="ElQxiUhi3wbRq82YkhIr-20" target="ElQxiUhi3wbRq82YkhIr-95">
          <mxGeometry relative="1" as="geometry" />
        </mxCell>
        <mxCell id="ElQxiUhi3wbRq82YkhIr-20" value="I2C Bus Control" style="rounded=0;whiteSpace=wrap;html=1;strokeColor=#343764;" vertex="1" parent="1">
          <mxGeometry x="427.5" y="503.75" width="82.5" height="65" as="geometry" />
        </mxCell>
        <mxCell id="ElQxiUhi3wbRq82YkhIr-21" value="Power-On Reset" style="rounded=0;whiteSpace=wrap;html=1;strokeColor=#343764;" vertex="1" parent="1">
          <mxGeometry x="433.75" y="595" width="70" height="40" as="geometry" />
        </mxCell>
        <mxCell id="ElQxiUhi3wbRq82YkhIr-24" value="Keypad Control&lt;br&gt;Data Registers" style="rounded=0;whiteSpace=wrap;html=1;direction=south;strokeColor=#343764;" vertex="1" parent="1">
          <mxGeometry x="650" y="440" width="140" height="310" as="geometry" />
        </mxCell>
        <mxCell id="ElQxiUhi3wbRq82YkhIr-23" value="Control Registers and FIFO" style="rounded=0;whiteSpace=wrap;html=1;strokeColor=#343764;" vertex="1" parent="1">
          <mxGeometry x="530" y="506.25" width="90" height="60" as="geometry" />
        </mxCell>
        <mxCell id="ElQxiUhi3wbRq82YkhIr-25" value="" style="endArrow=classicThin;html=1;rounded=0;startArrow=classicThin;startFill=1;endFill=1;entryX=1;entryY=0.5;entryDx=0;entryDy=0;exitX=0;exitY=0.25;exitDx=0;exitDy=0;strokeColor=#343764;" edge="1" parent="1" source="ElQxiUhi3wbRq82YkhIr-95" target="ElQxiUhi3wbRq82YkhIr-27">
          <mxGeometry width="50" height="50" relative="1" as="geometry">
            <mxPoint x="340" y="526" as="sourcePoint" />
            <mxPoint x="280" y="525" as="targetPoint" />
          </mxGeometry>
        </mxCell>
        <mxCell id="ElQxiUhi3wbRq82YkhIr-26" value="" style="endArrow=none;html=1;rounded=0;startArrow=classicThin;startFill=1;exitX=0;exitY=0.75;exitDx=0;exitDy=0;strokeColor=#343764;" edge="1" parent="1" source="ElQxiUhi3wbRq82YkhIr-95" target="ElQxiUhi3wbRq82YkhIr-28">
          <mxGeometry width="50" height="50" relative="1" as="geometry">
            <mxPoint x="360" y="540" as="sourcePoint" />
            <mxPoint x="280" y="549" as="targetPoint" />
          </mxGeometry>
        </mxCell>
        <mxCell id="ElQxiUhi3wbRq82YkhIr-27" value="SDA" style="text;html=1;strokeColor=#343764;fillColor=none;align=center;verticalAlign=middle;whiteSpace=wrap;rounded=0;" vertex="1" parent="1">
          <mxGeometry x="210" y="512.5" width="55" height="22.5" as="geometry" />
        </mxCell>
        <mxCell id="ElQxiUhi3wbRq82YkhIr-28" value="SCL" style="text;html=1;strokeColor=#343764;fillColor=none;align=center;verticalAlign=middle;whiteSpace=wrap;rounded=0;" vertex="1" parent="1">
          <mxGeometry x="215" y="540" width="45" height="20" as="geometry" />
        </mxCell>
        <mxCell id="ElQxiUhi3wbRq82YkhIr-29" value="" style="endArrow=classic;html=1;rounded=0;exitX=0.5;exitY=0;exitDx=0;exitDy=0;entryX=0.5;entryY=1;entryDx=0;entryDy=0;edgeStyle=orthogonalEdgeStyle;strokeColor=#343764;" edge="1" parent="1" source="ElQxiUhi3wbRq82YkhIr-21" target="ElQxiUhi3wbRq82YkhIr-20">
          <mxGeometry width="50" height="50" relative="1" as="geometry">
            <mxPoint x="440" y="510" as="sourcePoint" />
            <mxPoint x="490" y="460" as="targetPoint" />
          </mxGeometry>
        </mxCell>
        <mxCell id="ElQxiUhi3wbRq82YkhIr-30" value="" style="endArrow=classic;html=1;rounded=0;entryX=0;entryY=0.5;entryDx=0;entryDy=0;exitX=1;exitY=0.5;exitDx=0;exitDy=0;strokeColor=#343764;" edge="1" parent="1" source="ElQxiUhi3wbRq82YkhIr-11" target="ElQxiUhi3wbRq82YkhIr-21">
          <mxGeometry width="50" height="50" relative="1" as="geometry">
            <mxPoint x="280" y="605" as="sourcePoint" />
            <mxPoint x="320" y="565" as="targetPoint" />
          </mxGeometry>
        </mxCell>
        <mxCell id="ElQxiUhi3wbRq82YkhIr-33" value="" style="endArrow=classic;html=1;rounded=0;edgeStyle=orthogonalEdgeStyle;entryX=0.25;entryY=1;entryDx=0;entryDy=0;exitX=1;exitY=0.5;exitDx=0;exitDy=0;strokeColor=#343764;" edge="1" parent="1" source="ElQxiUhi3wbRq82YkhIr-21" target="ElQxiUhi3wbRq82YkhIr-23">
          <mxGeometry width="50" height="50" relative="1" as="geometry">
            <mxPoint x="440" y="600" as="sourcePoint" />
            <mxPoint x="490" y="550" as="targetPoint" />
          </mxGeometry>
        </mxCell>
        <mxCell id="ElQxiUhi3wbRq82YkhIr-41" value="" style="endArrow=classic;startArrow=classic;html=1;rounded=0;exitX=1;exitY=0.5;exitDx=0;exitDy=0;entryX=0.315;entryY=0.983;entryDx=0;entryDy=0;entryPerimeter=0;strokeColor=#343764;" edge="1" parent="1" source="ElQxiUhi3wbRq82YkhIr-23" target="ElQxiUhi3wbRq82YkhIr-24">
          <mxGeometry width="50" height="50" relative="1" as="geometry">
            <mxPoint x="450" y="520" as="sourcePoint" />
            <mxPoint x="500" y="470" as="targetPoint" />
          </mxGeometry>
        </mxCell>
        <mxCell id="ElQxiUhi3wbRq82YkhIr-42" value="" style="endArrow=classic;html=1;rounded=0;exitX=1;exitY=0.5;exitDx=0;exitDy=0;entryX=0.093;entryY=0.993;entryDx=0;entryDy=0;entryPerimeter=0;edgeStyle=elbowEdgeStyle;strokeColor=#343764;" edge="1" parent="1" source="ElQxiUhi3wbRq82YkhIr-19" target="ElQxiUhi3wbRq82YkhIr-24">
          <mxGeometry width="50" height="50" relative="1" as="geometry">
            <mxPoint x="590" y="650" as="sourcePoint" />
            <mxPoint x="640" y="600" as="targetPoint" />
          </mxGeometry>
        </mxCell>
        <mxCell id="ElQxiUhi3wbRq82YkhIr-43" value="" style="endArrow=classic;html=1;rounded=0;exitX=0;exitY=0.25;exitDx=0;exitDy=0;entryX=1;entryY=0.5;entryDx=0;entryDy=0;strokeColor=#343764;" edge="1" parent="1" source="ElQxiUhi3wbRq82YkhIr-19" target="ElQxiUhi3wbRq82YkhIr-47">
          <mxGeometry width="50" height="50" relative="1" as="geometry">
            <mxPoint x="417.5" y="425" as="sourcePoint" />
            <mxPoint x="280" y="460" as="targetPoint" />
          </mxGeometry>
        </mxCell>
        <mxCell id="ElQxiUhi3wbRq82YkhIr-46" value="" style="endArrow=classic;html=1;rounded=0;exitX=1;exitY=0.5;exitDx=0;exitDy=0;entryX=1;entryY=0.5;entryDx=0;entryDy=0;edgeStyle=orthogonalEdgeStyle;strokeColor=#343764;" edge="1" parent="1" source="ElQxiUhi3wbRq82YkhIr-10" target="ElQxiUhi3wbRq82YkhIr-24">
          <mxGeometry width="50" height="50" relative="1" as="geometry">
            <mxPoint x="400" y="600" as="sourcePoint" />
            <mxPoint x="450" y="550" as="targetPoint" />
          </mxGeometry>
        </mxCell>
        <mxCell id="ElQxiUhi3wbRq82YkhIr-47" value="INTA" style="text;html=1;strokeColor=#343764;fillColor=none;align=center;verticalAlign=middle;whiteSpace=wrap;rounded=0;" vertex="1" parent="1">
          <mxGeometry x="225" y="430" width="50" height="20" as="geometry" />
        </mxCell>
        <mxCell id="ElQxiUhi3wbRq82YkhIr-48" value="" style="endArrow=classic;html=1;rounded=0;exitX=1;exitY=0.5;exitDx=0;exitDy=0;entryX=0;entryY=0.5;entryDx=0;entryDy=0;strokeColor=#343764;" edge="1" parent="1" source="ElQxiUhi3wbRq82YkhIr-20" target="ElQxiUhi3wbRq82YkhIr-23">
          <mxGeometry width="50" height="50" relative="1" as="geometry">
            <mxPoint x="430" y="640" as="sourcePoint" />
            <mxPoint x="480" y="590" as="targetPoint" />
          </mxGeometry>
        </mxCell>
        <mxCell id="ElQxiUhi3wbRq82YkhIr-49" value="" style="endArrow=classic;html=1;rounded=0;entryX=1;entryY=0.5;entryDx=0;entryDy=0;strokeColor=#343764;exitX=0;exitY=0.75;exitDx=0;exitDy=0;" edge="1" parent="1" source="ElQxiUhi3wbRq82YkhIr-19" target="ElQxiUhi3wbRq82YkhIr-50">
          <mxGeometry width="50" height="50" relative="1" as="geometry">
            <mxPoint x="490" y="470" as="sourcePoint" />
            <mxPoint x="280" y="470" as="targetPoint" />
          </mxGeometry>
        </mxCell>
        <mxCell id="ElQxiUhi3wbRq82YkhIr-50" value="INTB" style="text;html=1;strokeColor=#343764;fillColor=none;align=center;verticalAlign=middle;whiteSpace=wrap;rounded=0;" vertex="1" parent="1">
          <mxGeometry x="225" y="460" width="50" height="20" as="geometry" />
        </mxCell>
        <mxCell id="ElQxiUhi3wbRq82YkhIr-52" value="Decode" style="rounded=0;whiteSpace=wrap;html=1;strokeColor=#343764;" vertex="1" parent="1">
          <mxGeometry x="370" y="688.75" width="75" height="30" as="geometry" />
        </mxCell>
        <mxCell id="ElQxiUhi3wbRq82YkhIr-53" value="A2:A0" style="text;html=1;strokeColor=#343764;fillColor=none;align=center;verticalAlign=middle;whiteSpace=wrap;rounded=0;" vertex="1" parent="1">
          <mxGeometry x="212.5" y="688.75" width="60" height="30" as="geometry" />
        </mxCell>
        <mxCell id="ElQxiUhi3wbRq82YkhIr-54" value="" style="endArrow=classic;html=1;rounded=0;exitX=1;exitY=0.5;exitDx=0;exitDy=0;entryX=0;entryY=0.5;entryDx=0;entryDy=0;strokeColor=#343764;" edge="1" parent="1" source="ElQxiUhi3wbRq82YkhIr-53" target="ElQxiUhi3wbRq82YkhIr-52">
          <mxGeometry width="50" height="50" relative="1" as="geometry">
            <mxPoint x="430" y="640" as="sourcePoint" />
            <mxPoint x="480" y="590" as="targetPoint" />
          </mxGeometry>
        </mxCell>
        <mxCell id="ElQxiUhi3wbRq82YkhIr-95" value="Input Filter" style="rounded=0;whiteSpace=wrap;html=1;strokeColor=#343764;" vertex="1" parent="1">
          <mxGeometry x="320" y="512.5" width="90" height="47.5" as="geometry" />
        </mxCell>
        <mxCell id="ElQxiUhi3wbRq82YkhIr-96" value="" style="endArrow=classic;html=1;rounded=0;exitX=1;exitY=0.5;exitDx=0;exitDy=0;entryX=0;entryY=0.5;entryDx=0;entryDy=0;strokeColor=#343764;" edge="1" parent="1" source="ElQxiUhi3wbRq82YkhIr-95" target="ElQxiUhi3wbRq82YkhIr-20">
          <mxGeometry width="50" height="50" relative="1" as="geometry">
            <mxPoint x="350" y="550" as="sourcePoint" />
            <mxPoint x="400" y="500" as="targetPoint" />
          </mxGeometry>
        </mxCell>
        <mxCell id="ElQxiUhi3wbRq82YkhIr-105" value="" style="endArrow=classic;html=1;rounded=0;exitX=0.067;exitY=-0.032;exitDx=0;exitDy=0;exitPerimeter=0;strokeColor=#343764;" edge="1" parent="1">
          <mxGeometry width="50" height="50" relative="1" as="geometry">
            <mxPoint x="768.52" y="469.9599999999998" as="sourcePoint" />
            <mxPoint x="825" y="469.8899999999999" as="targetPoint" />
          </mxGeometry>
        </mxCell>
        <mxCell id="ElQxiUhi3wbRq82YkhIr-106" value="" style="endArrow=classic;html=1;rounded=0;exitX=0.067;exitY=-0.032;exitDx=0;exitDy=0;exitPerimeter=0;strokeColor=#343764;" edge="1" parent="1">
          <mxGeometry width="50" height="50" relative="1" as="geometry">
            <mxPoint x="768.52" y="490.0699999999998" as="sourcePoint" />
            <mxPoint x="825" y="489.9999999999999" as="targetPoint" />
          </mxGeometry>
        </mxCell>
        <mxCell id="ElQxiUhi3wbRq82YkhIr-109" value="" style="endArrow=classic;html=1;rounded=0;exitX=0.067;exitY=-0.032;exitDx=0;exitDy=0;exitPerimeter=0;strokeColor=#343764;" edge="1" parent="1">
          <mxGeometry width="50" height="50" relative="1" as="geometry">
            <mxPoint x="770" y="507.5699999999998" as="sourcePoint" />
            <mxPoint x="826.48" y="507.4999999999999" as="targetPoint" />
          </mxGeometry>
        </mxCell>
        <mxCell id="ElQxiUhi3wbRq82YkhIr-110" value="" style="endArrow=classic;html=1;rounded=0;exitX=0.067;exitY=-0.032;exitDx=0;exitDy=0;exitPerimeter=0;strokeColor=#343764;" edge="1" parent="1">
          <mxGeometry width="50" height="50" relative="1" as="geometry">
            <mxPoint x="768.52" y="530.0699999999998" as="sourcePoint" />
            <mxPoint x="825" y="529.9999999999999" as="targetPoint" />
          </mxGeometry>
        </mxCell>
        <mxCell id="ElQxiUhi3wbRq82YkhIr-111" value="" style="endArrow=classic;html=1;rounded=0;exitX=0.067;exitY=-0.032;exitDx=0;exitDy=0;exitPerimeter=0;strokeColor=#343764;" edge="1" parent="1">
          <mxGeometry width="50" height="50" relative="1" as="geometry">
            <mxPoint x="770" y="550.0699999999998" as="sourcePoint" />
            <mxPoint x="826.48" y="549.9999999999999" as="targetPoint" />
          </mxGeometry>
        </mxCell>
        <mxCell id="ElQxiUhi3wbRq82YkhIr-112" value="" style="endArrow=classic;html=1;rounded=0;exitX=0.067;exitY=-0.032;exitDx=0;exitDy=0;exitPerimeter=0;strokeColor=#343764;" edge="1" parent="1">
          <mxGeometry width="50" height="50" relative="1" as="geometry">
            <mxPoint x="770" y="570.0699999999998" as="sourcePoint" />
            <mxPoint x="826.48" y="569.9999999999999" as="targetPoint" />
          </mxGeometry>
        </mxCell>
        <mxCell id="ElQxiUhi3wbRq82YkhIr-113" value="" style="endArrow=classic;html=1;rounded=0;exitX=0.067;exitY=-0.032;exitDx=0;exitDy=0;exitPerimeter=0;strokeColor=#343764;" edge="1" parent="1">
          <mxGeometry width="50" height="50" relative="1" as="geometry">
            <mxPoint x="770" y="584.9099999999999" as="sourcePoint" />
            <mxPoint x="826.48" y="584.8399999999999" as="targetPoint" />
          </mxGeometry>
        </mxCell>
        <mxCell id="ElQxiUhi3wbRq82YkhIr-115" value="" style="endArrow=classic;html=1;rounded=0;exitX=0.067;exitY=-0.032;exitDx=0;exitDy=0;exitPerimeter=0;strokeColor=#343764;" edge="1" parent="1">
          <mxGeometry width="50" height="50" relative="1" as="geometry">
            <mxPoint x="770" y="625.0699999999998" as="sourcePoint" />
            <mxPoint x="826.48" y="624.9999999999999" as="targetPoint" />
          </mxGeometry>
        </mxCell>
        <mxCell id="ElQxiUhi3wbRq82YkhIr-116" value="" style="endArrow=classic;html=1;rounded=0;exitX=0.067;exitY=-0.032;exitDx=0;exitDy=0;exitPerimeter=0;strokeColor=#343764;" edge="1" parent="1">
          <mxGeometry width="50" height="50" relative="1" as="geometry">
            <mxPoint x="770" y="640.0699999999998" as="sourcePoint" />
            <mxPoint x="826.48" y="639.9999999999999" as="targetPoint" />
          </mxGeometry>
        </mxCell>
        <mxCell id="ElQxiUhi3wbRq82YkhIr-117" value="" style="endArrow=classic;html=1;rounded=0;exitX=0.067;exitY=-0.032;exitDx=0;exitDy=0;exitPerimeter=0;strokeColor=#343764;" edge="1" parent="1">
          <mxGeometry width="50" height="50" relative="1" as="geometry">
            <mxPoint x="770" y="660.0699999999998" as="sourcePoint" />
            <mxPoint x="826.48" y="659.9999999999999" as="targetPoint" />
          </mxGeometry>
        </mxCell>
        <mxCell id="ElQxiUhi3wbRq82YkhIr-118" value="" style="endArrow=classic;html=1;rounded=0;exitX=0.067;exitY=-0.032;exitDx=0;exitDy=0;exitPerimeter=0;strokeColor=#343764;" edge="1" parent="1">
          <mxGeometry width="50" height="50" relative="1" as="geometry">
            <mxPoint x="770" y="680.0699999999998" as="sourcePoint" />
            <mxPoint x="826.48" y="679.9999999999999" as="targetPoint" />
          </mxGeometry>
        </mxCell>
        <mxCell id="ElQxiUhi3wbRq82YkhIr-119" value="" style="endArrow=classic;html=1;rounded=0;exitX=0.067;exitY=-0.032;exitDx=0;exitDy=0;exitPerimeter=0;strokeColor=#343764;" edge="1" parent="1">
          <mxGeometry width="50" height="50" relative="1" as="geometry">
            <mxPoint x="770" y="700.0699999999998" as="sourcePoint" />
            <mxPoint x="826.48" y="699.9999999999999" as="targetPoint" />
          </mxGeometry>
        </mxCell>
        <mxCell id="ElQxiUhi3wbRq82YkhIr-120" value="" style="endArrow=classic;html=1;rounded=0;exitX=0.067;exitY=-0.032;exitDx=0;exitDy=0;exitPerimeter=0;strokeColor=#343764;" edge="1" parent="1">
          <mxGeometry width="50" height="50" relative="1" as="geometry">
            <mxPoint x="770" y="720.0699999999998" as="sourcePoint" />
            <mxPoint x="826.48" y="719.9999999999999" as="targetPoint" />
          </mxGeometry>
        </mxCell>
        <mxCell id="ElQxiUhi3wbRq82YkhIr-121" value="" style="endArrow=classic;html=1;rounded=0;exitX=0.067;exitY=-0.032;exitDx=0;exitDy=0;exitPerimeter=0;strokeColor=#343764;" edge="1" parent="1">
          <mxGeometry width="50" height="50" relative="1" as="geometry">
            <mxPoint x="770" y="452.40999999999985" as="sourcePoint" />
            <mxPoint x="826.48" y="452.3399999999999" as="targetPoint" />
          </mxGeometry>
        </mxCell>
        <mxCell id="ElQxiUhi3wbRq82YkhIr-122" value="" style="endArrow=classic;html=1;rounded=0;exitX=0.067;exitY=-0.032;exitDx=0;exitDy=0;exitPerimeter=0;strokeColor=#343764;" edge="1" parent="1">
          <mxGeometry width="50" height="50" relative="1" as="geometry">
            <mxPoint x="770" y="740.0699999999998" as="sourcePoint" />
            <mxPoint x="826.48" y="739.9999999999999" as="targetPoint" />
          </mxGeometry>
        </mxCell>
        <mxCell id="ElQxiUhi3wbRq82YkhIr-124" value="&lt;font style=&quot;font-size: 9px;&quot;&gt;GPB0&lt;/font&gt;" style="text;html=1;strokeColor=none;fillColor=none;align=center;verticalAlign=middle;whiteSpace=wrap;rounded=0;" vertex="1" parent="1">
          <mxGeometry x="830" y="442.5" width="30" height="18.75" as="geometry" />
        </mxCell>
        <mxCell id="ElQxiUhi3wbRq82YkhIr-125" value="&lt;font style=&quot;font-size: 9px;&quot;&gt;GPB1&lt;/font&gt;" style="text;html=1;strokeColor=none;fillColor=none;align=center;verticalAlign=middle;whiteSpace=wrap;rounded=0;" vertex="1" parent="1">
          <mxGeometry x="830" y="460" width="30" height="18.75" as="geometry" />
        </mxCell>
        <mxCell id="ElQxiUhi3wbRq82YkhIr-126" value="&lt;font style=&quot;font-size: 9px;&quot;&gt;GPB2&lt;/font&gt;" style="text;html=1;strokeColor=none;fillColor=none;align=center;verticalAlign=middle;whiteSpace=wrap;rounded=0;" vertex="1" parent="1">
          <mxGeometry x="830" y="478.75" width="30" height="18.75" as="geometry" />
        </mxCell>
        <mxCell id="ElQxiUhi3wbRq82YkhIr-127" value="&lt;font style=&quot;font-size: 9px;&quot;&gt;GPB3&lt;/font&gt;" style="text;html=1;strokeColor=none;fillColor=none;align=center;verticalAlign=middle;whiteSpace=wrap;rounded=0;" vertex="1" parent="1">
          <mxGeometry x="830" y="497.5" width="30" height="18.75" as="geometry" />
        </mxCell>
        <mxCell id="ElQxiUhi3wbRq82YkhIr-128" value="&lt;font style=&quot;font-size: 9px;&quot;&gt;GPB4&lt;/font&gt;" style="text;html=1;strokeColor=none;fillColor=none;align=center;verticalAlign=middle;whiteSpace=wrap;rounded=0;" vertex="1" parent="1">
          <mxGeometry x="830" y="518.75" width="30" height="18.75" as="geometry" />
        </mxCell>
        <mxCell id="ElQxiUhi3wbRq82YkhIr-129" value="&lt;font style=&quot;font-size: 9px;&quot;&gt;GPB5&lt;/font&gt;" style="text;html=1;strokeColor=none;fillColor=none;align=center;verticalAlign=middle;whiteSpace=wrap;rounded=0;" vertex="1" parent="1">
          <mxGeometry x="830" y="541" width="30" height="18.75" as="geometry" />
        </mxCell>
        <mxCell id="ElQxiUhi3wbRq82YkhIr-130" value="&lt;font style=&quot;font-size: 9px;&quot;&gt;GPB6&lt;/font&gt;" style="text;html=1;strokeColor=none;fillColor=none;align=center;verticalAlign=middle;whiteSpace=wrap;rounded=0;" vertex="1" parent="1">
          <mxGeometry x="830" y="560" width="30" height="18.75" as="geometry" />
        </mxCell>
        <mxCell id="ElQxiUhi3wbRq82YkhIr-131" value="&lt;font style=&quot;font-size: 9px;&quot;&gt;GPB7&lt;/font&gt;" style="text;html=1;strokeColor=none;fillColor=none;align=center;verticalAlign=middle;whiteSpace=wrap;rounded=0;" vertex="1" parent="1">
          <mxGeometry x="830" y="576.25" width="30" height="18.75" as="geometry" />
        </mxCell>
        <mxCell id="ElQxiUhi3wbRq82YkhIr-132" value="&lt;font style=&quot;font-size: 9px;&quot;&gt;GPA0&lt;/font&gt;" style="text;html=1;strokeColor=none;fillColor=none;align=center;verticalAlign=middle;whiteSpace=wrap;rounded=0;" vertex="1" parent="1">
          <mxGeometry x="830" y="595" width="30" height="18.75" as="geometry" />
        </mxCell>
        <mxCell id="ElQxiUhi3wbRq82YkhIr-133" value="&lt;font style=&quot;font-size: 9px;&quot;&gt;GPA1&lt;/font&gt;" style="text;html=1;strokeColor=none;fillColor=none;align=center;verticalAlign=middle;whiteSpace=wrap;rounded=0;" vertex="1" parent="1">
          <mxGeometry x="830" y="613.75" width="30" height="18.75" as="geometry" />
        </mxCell>
        <mxCell id="ElQxiUhi3wbRq82YkhIr-134" value="&lt;font style=&quot;font-size: 9px;&quot;&gt;GPA2&lt;/font&gt;" style="text;html=1;strokeColor=none;fillColor=none;align=center;verticalAlign=middle;whiteSpace=wrap;rounded=0;" vertex="1" parent="1">
          <mxGeometry x="830" y="632.5" width="30" height="18.75" as="geometry" />
        </mxCell>
        <mxCell id="ElQxiUhi3wbRq82YkhIr-135" value="&lt;font style=&quot;font-size: 9px;&quot;&gt;GPA3&lt;/font&gt;" style="text;html=1;strokeColor=none;fillColor=none;align=center;verticalAlign=middle;whiteSpace=wrap;rounded=0;" vertex="1" parent="1">
          <mxGeometry x="830" y="651.25" width="30" height="18.75" as="geometry" />
        </mxCell>
        <mxCell id="ElQxiUhi3wbRq82YkhIr-136" value="&lt;font style=&quot;font-size: 9px;&quot;&gt;GPA4&lt;/font&gt;" style="text;html=1;strokeColor=none;fillColor=none;align=center;verticalAlign=middle;whiteSpace=wrap;rounded=0;" vertex="1" parent="1">
          <mxGeometry x="830" y="670" width="30" height="18.75" as="geometry" />
        </mxCell>
        <mxCell id="ElQxiUhi3wbRq82YkhIr-137" value="&lt;font style=&quot;font-size: 9px;&quot;&gt;GPA5&lt;/font&gt;" style="text;html=1;strokeColor=none;fillColor=none;align=center;verticalAlign=middle;whiteSpace=wrap;rounded=0;" vertex="1" parent="1">
          <mxGeometry x="830" y="688.75" width="30" height="18.75" as="geometry" />
        </mxCell>
        <mxCell id="ElQxiUhi3wbRq82YkhIr-138" value="&lt;font style=&quot;font-size: 9px;&quot;&gt;GPA6&lt;/font&gt;" style="text;html=1;strokeColor=none;fillColor=none;align=center;verticalAlign=middle;whiteSpace=wrap;rounded=0;" vertex="1" parent="1">
          <mxGeometry x="830" y="707.5" width="30" height="18.75" as="geometry" />
        </mxCell>
        <mxCell id="ElQxiUhi3wbRq82YkhIr-139" value="&lt;font style=&quot;font-size: 9px;&quot;&gt;GPA7&lt;/font&gt;" style="text;html=1;strokeColor=none;fillColor=none;align=center;verticalAlign=middle;whiteSpace=wrap;rounded=0;" vertex="1" parent="1">
          <mxGeometry x="830" y="726.25" width="30" height="18.75" as="geometry" />
        </mxCell>
        <mxCell id="ElQxiUhi3wbRq82YkhIr-140" value="" style="endArrow=classic;html=1;rounded=0;exitX=0.067;exitY=-0.032;exitDx=0;exitDy=0;exitPerimeter=0;strokeColor=#343764;entryX=0;entryY=0.5;entryDx=0;entryDy=0;" edge="1" parent="1" target="ElQxiUhi3wbRq82YkhIr-132">
          <mxGeometry width="50" height="50" relative="1" as="geometry">
            <mxPoint x="770" y="605.0699999999998" as="sourcePoint" />
            <mxPoint x="826.48" y="604.9999999999999" as="targetPoint" />
          </mxGeometry>
        </mxCell>
        <mxCell id="csW_PNabbY8zoehp32rw-1" value="GND" style="text;html=1;strokeColor=#343764;fillColor=none;align=center;verticalAlign=middle;whiteSpace=wrap;rounded=0;" vertex="1" parent="1">
          <mxGeometry x="215" y="645" width="55" height="25" as="geometry" />
        </mxCell>
        <mxCell id="csW_PNabbY8zoehp32rw-2" value="" style="endArrow=classic;html=1;rounded=0;exitX=1;exitY=0.5;exitDx=0;exitDy=0;entryX=0.5;entryY=1;entryDx=0;entryDy=0;edgeStyle=orthogonalEdgeStyle;" edge="1" parent="1" source="csW_PNabbY8zoehp32rw-1" target="ElQxiUhi3wbRq82YkhIr-21">
          <mxGeometry width="50" height="50" relative="1" as="geometry">
            <mxPoint x="390" y="660" as="sourcePoint" />
            <mxPoint x="440" y="610" as="targetPoint" />
          </mxGeometry>
        </mxCell>
        <mxCell id="csW_PNabbY8zoehp32rw-3" value="" style="endArrow=classic;html=1;rounded=0;exitX=0.5;exitY=0;exitDx=0;exitDy=0;entryX=0.5;entryY=1;entryDx=0;entryDy=0;edgeStyle=orthogonalEdgeStyle;" edge="1" parent="1" source="ElQxiUhi3wbRq82YkhIr-52" target="ElQxiUhi3wbRq82YkhIr-20">
          <mxGeometry width="50" height="50" relative="1" as="geometry">
            <mxPoint x="390" y="660" as="sourcePoint" />
            <mxPoint x="440" y="610" as="targetPoint" />
            <Array as="points">
              <mxPoint x="410" y="689" />
              <mxPoint x="410" y="580" />
              <mxPoint x="469" y="580" />
            </Array>
          </mxGeometry>
        </mxCell>
      </root>
    </mxGraphModel>
  </diagram>
</mxfile>
